M48
METRIC,LZ,000.000
;FILE_FORMAT=3:3
;TYPE=PLATED
;Layer: PTH_Through_Via
;EasyEDA v6.5.48, 2025-03-18 13:34:47
;7eabae28df64481683c8fee008179a12,87df033457c64ae98c411226fbcdc187,10
;Gerber Generator version 0.2
;Holesize 1 = 0.306 mm
T01C0.306
%
G05
G90
T01
X212099Y029082
X225212Y026275
X199135Y017821
X192368Y016419
X184874Y011833
X193673Y013687
X205482Y036378
X207203Y027094
X209806Y012666
X197705Y012492
X172864Y029155
X175617Y029155
X190109Y031862
X219606Y029251
X218320Y011991
X208552Y030521
X190046Y041481
X210933Y020623
X204555Y004512
X200627Y011094
X183471Y018657
X207377Y029279
X210256Y027288
X203544Y037130
X195326Y036068
M30
