M48
METRIC,LZ,000.000
;FILE_FORMAT=3:3
;TYPE=PLATED
;Layer: PTH_Through
;EasyEDA v6.5.48, 2025-03-18 13:34:47
;7eabae28df64481683c8fee008179a12,87df033457c64ae98c411226fbcdc187,10
;Gerber Generator version 0.2
;Holesize 1 = 0.306 mm
T01C0.306
;Holesize 2 = 0.889 mm
T02C0.889
;Holesize 3 = 0.915 mm
T03C0.915
;Holesize 4 = 1.101 mm
T04C1.101
%
G05
G90
T01
X212099Y029082
X225212Y026275
X199135Y017821
X192368Y016419
X184874Y011833
X193673Y013687
X205482Y036378
X207203Y027094
X209806Y012666
X197705Y012492
X172864Y029155
X175617Y029155
X190109Y031862
X219606Y029251
X218320Y011991
X208552Y030521
X190046Y041481
X210933Y020623
X204555Y004512
X200627Y011094
X183471Y018657
X207377Y029279
X210256Y027288
X203544Y037130
X195326Y036068
T02
X201302Y030406
X201302Y032946
X201302Y025072
X201302Y027612
X171457Y037772
X173997Y037772
X177457Y037772
X179997Y037772
X183457Y037772
X185997Y037772
X189457Y037772
X191997Y037772
X195457Y037772
X197997Y037772
X171457Y004371
X173997Y004371
X177457Y004371
X179997Y004371
X183457Y004371
X185997Y004371
X189457Y004371
X191997Y004371
X195457Y004371
X197997Y004371
T03
X206509Y008435
X209049Y008435
T04
X193428Y027485
X190888Y027485
X188348Y027485
X185808Y027485
X183268Y027485
X180728Y027485
X178188Y027485
X175648Y027485
M30
