G04 Layer: TopLayer*
G04 EasyEDA v6.5.48, 2025-03-18 13:34:47*
G04 7eabae28df64481683c8fee008179a12,87df033457c64ae98c411226fbcdc187,10*
G04 Gerber Generator version 0.2*
G04 Scale: 100 percent, Rotated: No, Reflected: No *
G04 Dimensions in millimeters *
G04 leading zeros omitted , absolute positions ,4 integer and 5 decimal *
%FSLAX45Y45*%
%MOMM*%

%AMMACRO1*21,1,$1,$2,0,0,$3*%
%ADD10C,0.5000*%
%ADD11R,2.0000X0.9000*%
%ADD12R,0.9000X2.0000*%
%ADD13MACRO1,2X0.9X-90.0000*%
%ADD14MACRO1,2X0.9X0.0000*%
%ADD15R,4.1000X4.1000*%
%ADD16R,1.8000X1.0000*%
%ADD17MACRO1,1.701X1.2075X0.0000*%
%ADD18R,1.7010X1.2075*%
%ADD19R,1.5748X1.5748*%
%ADD20C,1.5748*%
%ADD21O,1.524X2.54*%
%ADD22R,1.7000X1.7000*%
%ADD23C,0.6100*%
%ADD24C,0.0149*%

%LPD*%
D10*
X17861584Y3353587D02*
G01*
X17861584Y3489020D01*
X17861584Y3489020D02*
G01*
X17999659Y3627094D01*
X17999659Y3777208D01*
X20737652Y2927883D02*
G01*
X20716087Y2927883D01*
X20713318Y2925114D01*
X20538262Y2925114D02*
G01*
X20713318Y2925114D01*
X20354442Y3713048D02*
G01*
X20404658Y3763263D01*
X20660385Y3763263D01*
X21065236Y3358413D01*
X21065236Y2768422D01*
X21025586Y2728772D01*
X19532600Y3606800D02*
G01*
X19452259Y3606800D01*
X19363283Y3695776D01*
X19363283Y3839032D01*
X19271183Y3931132D01*
X18153583Y3931132D01*
X17999659Y3777208D01*
X17425060Y1169187D02*
G01*
X17345025Y1169187D01*
X20062748Y1109421D02*
G01*
X20062748Y843965D01*
X20455509Y451205D01*
X21093328Y2062302D02*
G01*
X20738515Y2417114D01*
X20538262Y2417114D01*
X20538262Y2290114D02*
G01*
X20363205Y2290114D01*
X19545655Y3777208D02*
G01*
X19699554Y3931107D01*
X19963409Y3931107D01*
X20386243Y3508273D01*
X20600974Y3508273D01*
X20719491Y3389756D01*
X20719491Y3185287D01*
X20713318Y3179114D01*
X20538262Y3179114D02*
G01*
X20713318Y3179114D01*
X18768085Y873429D02*
G01*
X18320410Y873429D01*
X18320410Y873429D02*
G01*
X17872735Y873429D01*
X17872735Y873429D02*
G01*
X17425060Y873429D01*
X19215760Y873429D02*
G01*
X19215760Y737996D01*
X18760033Y3057829D02*
G01*
X18310809Y3057829D01*
X18310809Y3057829D02*
G01*
X17861584Y3057829D01*
X17861584Y3057829D02*
G01*
X17412360Y3057829D01*
X19203060Y3057829D02*
G01*
X19088760Y3057829D01*
X19088760Y3057829D02*
G01*
X18760033Y3057829D01*
X19088760Y3057829D02*
G01*
X19088760Y2908985D01*
X19088760Y2908985D02*
G01*
X19088760Y2748508D01*
X21476360Y661619D02*
G01*
X21311311Y661619D01*
X19088760Y2908985D02*
G01*
X19982383Y2908985D01*
X20130160Y2761208D01*
X20538262Y3306114D02*
G01*
X20363205Y3306114D01*
X18768085Y873429D02*
G01*
X19215760Y873429D01*
X20904860Y720318D02*
G01*
X21252611Y720318D01*
X21311311Y661619D01*
X20904860Y720318D02*
G01*
X20904860Y843508D01*
X20363205Y3306114D02*
G01*
X20214513Y3454806D01*
X19806716Y3454806D01*
X19409740Y3057829D01*
X19203060Y3057829D01*
X18760033Y3353587D02*
G01*
X18920129Y3353587D01*
X18920129Y3353587D02*
G01*
X19199656Y3633114D01*
X19199656Y3777208D01*
X20538262Y2671114D02*
G01*
X20363205Y2671114D01*
X20538262Y3052114D02*
G01*
X20855152Y3052114D01*
X21960611Y2925114D02*
G01*
X22338258Y2925114D01*
X18310809Y3353587D02*
G01*
X18310809Y3489020D01*
X17561712Y2915488D02*
G01*
X17286350Y2915488D01*
X20713318Y2798114D02*
G01*
X20720253Y2791180D01*
X20720253Y2709443D01*
X20538262Y2798114D02*
G01*
X20713318Y2798114D01*
X19770496Y1249197D02*
G01*
X20963102Y1249197D01*
X20980552Y1266647D01*
X20538262Y2544114D02*
G01*
X20713318Y2544114D01*
X19799655Y3777208D02*
G01*
X19799655Y3716578D01*
X19572097Y3489020D01*
X19203060Y3489020D01*
X19203060Y3353587D02*
G01*
X19203060Y3489020D01*
X20713318Y2544114D02*
G01*
X20825917Y2656712D01*
X20825917Y2678531D01*
X20965083Y2817698D01*
X20965083Y3296488D01*
X20623809Y3637762D01*
X20548193Y3637762D01*
X19367296Y1368653D02*
G01*
X20511744Y1368653D01*
X20713445Y1570354D01*
X20713445Y2162987D01*
X20713318Y2163114D01*
X20538262Y2163114D02*
G01*
X20713318Y2163114D01*
X18480506Y1169187D02*
G01*
X18480506Y1176375D01*
X18487390Y1183259D01*
X18320410Y1169187D02*
G01*
X18480506Y1169187D01*
X18768085Y1174597D02*
G01*
X18768085Y1304620D01*
X18768085Y1174597D02*
G01*
X18768085Y1169187D01*
X18768085Y1304620D02*
G01*
X19105397Y1641932D01*
X19236816Y1641932D01*
X19236816Y1641932D02*
G01*
X19630999Y2036114D01*
X20538262Y2036114D01*
X19913498Y1782114D02*
G01*
X20538262Y1782114D01*
X21209914Y2908223D02*
G01*
X21796832Y2908223D01*
X21906941Y2798114D01*
X22338258Y2798114D01*
X22338182Y3052038D02*
G01*
X21836786Y3052038D01*
X20849742Y4039336D01*
X17741798Y4039336D01*
X17591684Y3889222D01*
X17591684Y3367760D01*
X17773294Y3186150D01*
X19010782Y3186150D01*
X18310758Y3488918D02*
G01*
X18599556Y3777208D01*
X17412360Y3353536D02*
G01*
X17412360Y3777208D01*
X17399660Y3777208D01*
X22338258Y2671114D02*
G01*
X22477552Y2671114D01*
X22521189Y2627477D01*
X21476360Y1101572D02*
G01*
X21607424Y1101572D01*
X21819260Y1313408D01*
X22428860Y1313408D01*
X22530460Y1415008D01*
X22530460Y1618208D01*
X22491090Y1655038D01*
X22338182Y1655038D01*
X22035160Y1114272D02*
G01*
X22145396Y1114272D01*
X22204832Y1054836D01*
X22403460Y1054836D01*
X21476360Y661644D02*
G01*
X21620124Y661644D01*
X21679560Y602208D01*
X21933560Y602208D01*
X22005696Y674344D01*
X22035160Y674344D01*
X21831960Y1199108D02*
G01*
X21831960Y1148308D01*
X21865996Y1114272D01*
X22035160Y1114272D01*
X20650860Y843508D02*
G01*
X20651368Y908278D01*
X20789798Y1046708D01*
X21146160Y1046708D01*
X21357996Y834872D01*
X22167748Y834872D01*
X22243440Y759180D01*
X22403460Y759180D01*
X20363078Y2290038D02*
G01*
X20278496Y2205202D01*
X18862954Y2205202D01*
X17872862Y1214856D01*
X17872862Y1169136D01*
X17399660Y437108D02*
G01*
X17399660Y476148D01*
X17161916Y713892D01*
X17161916Y1066139D01*
X17264964Y1169187D01*
X17425060Y1169187D01*
X18347080Y1865604D02*
G01*
X17964556Y1865604D01*
X17425060Y1326108D01*
X17425060Y1169136D01*
X17999709Y437134D02*
G01*
X17999709Y548386D01*
X17887695Y660400D01*
X17366741Y660400D01*
X17259300Y767842D01*
X17259300Y957071D01*
X17336261Y1034034D01*
X17818861Y1034034D01*
X17872963Y1087881D01*
X17872963Y1169162D01*
X19342861Y2748534D02*
G01*
X19578066Y2748534D01*
X19819366Y2507234D01*
X20130261Y2507234D01*
X20363205Y2671114D02*
G01*
X20325079Y2632989D01*
X20325079Y2417140D01*
X20250962Y2343022D01*
X17685384Y2343022D01*
X16991736Y3036671D01*
X16991736Y3893388D01*
X17246473Y4148124D01*
X19004635Y4148124D01*
X19215861Y1169162D02*
G01*
X19215861Y1104137D01*
X19304000Y1016000D01*
X19672300Y1016000D01*
X19799554Y888745D01*
X19799554Y437134D01*
X19215861Y1169162D02*
G01*
X19215861Y1423162D01*
X19701763Y1909063D01*
X20538186Y1909063D01*
X19215861Y737870D02*
G01*
X19391629Y562102D01*
X19391629Y315976D01*
X19453606Y254000D01*
X20438618Y254000D01*
X20904961Y720344D01*
X18345658Y437134D02*
G01*
X18345658Y348742D01*
X18440400Y254000D01*
X18846800Y254000D01*
X18945606Y352805D01*
X18945606Y437134D01*
X17745709Y437134D02*
G01*
X17745709Y377189D01*
X17868900Y254000D01*
X18249900Y254000D01*
X18345658Y349757D01*
X18345658Y437134D01*
X17145761Y437134D02*
G01*
X17145761Y405637D01*
X17297400Y254000D01*
X17627600Y254000D01*
X17745709Y372110D01*
X17745709Y437134D01*
D11*
G01*
X20538262Y3306114D03*
G01*
X20538262Y3179114D03*
G01*
X20538262Y3052114D03*
G01*
X20538262Y2925114D03*
G01*
X20538262Y2798114D03*
G01*
X20538262Y2671114D03*
G01*
X20538262Y2544114D03*
G01*
X20538262Y2417114D03*
G01*
X20538262Y2290114D03*
G01*
X20538262Y2163114D03*
G01*
X20538262Y2036114D03*
G01*
X20538262Y1909114D03*
G01*
X20538262Y1782114D03*
G01*
X20538262Y1655114D03*
D12*
G01*
X20866760Y1505102D03*
G01*
X20993760Y1505102D03*
G01*
X21120760Y1505102D03*
G01*
X21247760Y1505102D03*
G01*
X21374760Y1505102D03*
D13*
G01*
X21501760Y1505102D03*
G01*
X21628760Y1505102D03*
G01*
X21755760Y1505102D03*
G01*
X21882760Y1505102D03*
G01*
X22009760Y1505102D03*
D14*
G01*
X22338266Y1655114D03*
G01*
X22338266Y1782114D03*
G01*
X22338266Y1909114D03*
G01*
X22338266Y2036114D03*
G01*
X22338266Y2163114D03*
G01*
X22338266Y2290114D03*
G01*
X22338266Y2417114D03*
G01*
X22338266Y2544114D03*
G01*
X22338266Y2671114D03*
G01*
X22338266Y2798114D03*
G01*
X22338266Y2925114D03*
G01*
X22338266Y3052114D03*
G01*
X22338266Y3179114D03*
G01*
X22338266Y3306114D03*
D15*
G01*
X21370264Y2572105D03*
D16*
G01*
X21476360Y661619D03*
G01*
X21476360Y1101597D03*
D17*
G01*
X22403460Y1054884D03*
D18*
G01*
X22403460Y759129D03*
D16*
G01*
X22035160Y674319D03*
G01*
X22035160Y1114297D03*
D17*
G01*
X17412360Y3353584D03*
D18*
G01*
X17412360Y3057829D03*
D17*
G01*
X17861584Y3353584D03*
D18*
G01*
X17861584Y3057829D03*
D17*
G01*
X18310809Y3353584D03*
D18*
G01*
X18310809Y3057829D03*
D17*
G01*
X18760033Y3353584D03*
D18*
G01*
X18760033Y3057829D03*
D17*
G01*
X19203060Y3353584D03*
D18*
G01*
X19203060Y3057829D03*
D17*
G01*
X17425060Y1169184D03*
D18*
G01*
X17425060Y873429D03*
D17*
G01*
X17872735Y1169184D03*
D18*
G01*
X17872735Y873429D03*
D17*
G01*
X18320410Y1169184D03*
D18*
G01*
X18320410Y873429D03*
D17*
G01*
X18768085Y1169184D03*
D18*
G01*
X18768085Y873429D03*
D17*
G01*
X19215760Y1169184D03*
D18*
G01*
X19215760Y873429D03*
D19*
G01*
X20130160Y3040608D03*
D20*
G01*
X20130160Y3294608D03*
D19*
G01*
X20130160Y2507208D03*
D20*
G01*
X20130160Y2761208D03*
D21*
G01*
X20650860Y843508D03*
G01*
X20904860Y843508D03*
D22*
G01*
X19342760Y2748508D03*
G01*
X19088760Y2748508D03*
G01*
X18834760Y2748508D03*
G01*
X18580760Y2748508D03*
G01*
X18326760Y2748508D03*
G01*
X18072760Y2748508D03*
G01*
X17818760Y2748508D03*
G01*
X17564760Y2748508D03*
D19*
G01*
X17145660Y3777208D03*
D20*
G01*
X17399660Y3777208D03*
D19*
G01*
X17745659Y3777208D03*
D20*
G01*
X17999659Y3777208D03*
D19*
G01*
X18345658Y3777208D03*
D20*
G01*
X18599658Y3777208D03*
D19*
G01*
X18945656Y3777208D03*
D20*
G01*
X19199656Y3777208D03*
D19*
G01*
X19545655Y3777208D03*
D20*
G01*
X19799655Y3777208D03*
D19*
G01*
X17145660Y437108D03*
D20*
G01*
X17399660Y437108D03*
D19*
G01*
X17745659Y437108D03*
D20*
G01*
X17999659Y437108D03*
D19*
G01*
X18345658Y437108D03*
D20*
G01*
X18599658Y437108D03*
D19*
G01*
X18945656Y437108D03*
D20*
G01*
X19199656Y437108D03*
D19*
G01*
X19545655Y437108D03*
D20*
G01*
X19799655Y437108D03*
D23*
G01*
X21209914Y2908223D03*
G01*
X22521189Y2627477D03*
G01*
X19913498Y1782114D03*
G01*
X19236816Y1641932D03*
G01*
X18487390Y1183259D03*
G01*
X19367296Y1368653D03*
G01*
X20548193Y3637762D03*
G01*
X20720253Y2709443D03*
G01*
X20980552Y1266647D03*
G01*
X19770496Y1249197D03*
G01*
X17286350Y2915488D03*
G01*
X17561712Y2915488D03*
G01*
X19010858Y3186150D03*
G01*
X21960611Y2925114D03*
G01*
X21831960Y1199108D03*
G01*
X20855152Y3052114D03*
G01*
X19004635Y4148124D03*
G01*
X21093328Y2062302D03*
G01*
X20455509Y451205D03*
G01*
X20062748Y1109421D03*
G01*
X18347131Y1865680D03*
G01*
X20737652Y2927883D03*
G01*
X21025586Y2728772D03*
G01*
X20354442Y3713048D03*
G01*
X19532600Y3606800D03*
M02*
