G04 Layer: TopPasteMaskLayer*
G04 EasyEDA v6.5.48, 2025-03-18 13:34:47*
G04 7eabae28df64481683c8fee008179a12,87df033457c64ae98c411226fbcdc187,10*
G04 Gerber Generator version 0.2*
G04 Scale: 100 percent, Rotated: No, Reflected: No *
G04 Dimensions in millimeters *
G04 leading zeros omitted , absolute positions ,4 integer and 5 decimal *
%FSLAX45Y45*%
%MOMM*%

%AMMACRO1*21,1,$1,$2,0,0,$3*%
%ADD10R,2.0000X0.9000*%
%ADD11R,0.9000X2.0000*%
%ADD12MACRO1,2X0.9002X-90.0000*%
%ADD13MACRO1,2X0.9002X0.0000*%
%ADD14R,4.1000X4.1000*%
%ADD15R,1.8000X1.0000*%
%ADD16R,0.0190X1.0000*%

%LPD*%
G36*
X22328428Y1115263D02*
G01*
X22318421Y1105255D01*
X22318421Y1004519D01*
X22328428Y994511D01*
X22364547Y994511D01*
X22374555Y1004519D01*
X22374555Y1025550D01*
X22384562Y1035558D01*
X22422358Y1035558D01*
X22432365Y1025550D01*
X22432365Y1004519D01*
X22442373Y994511D01*
X22478492Y994511D01*
X22488499Y1004519D01*
X22488499Y1105255D01*
X22478492Y1115263D01*
G37*
G36*
X22328428Y819505D02*
G01*
X22318421Y809498D01*
X22318421Y708761D01*
X22328428Y698754D01*
X22478492Y698754D01*
X22488499Y708761D01*
X22488499Y809498D01*
X22478492Y819505D01*
X22442373Y819505D01*
X22432365Y809498D01*
X22432365Y788466D01*
X22422358Y778459D01*
X22384562Y778459D01*
X22374555Y788466D01*
X22374555Y809498D01*
X22364547Y819505D01*
G37*
G36*
X17337328Y3413963D02*
G01*
X17327321Y3403955D01*
X17327321Y3303219D01*
X17337328Y3293211D01*
X17373447Y3293211D01*
X17383455Y3303219D01*
X17383455Y3324250D01*
X17393462Y3334258D01*
X17431258Y3334258D01*
X17441265Y3324250D01*
X17441265Y3303219D01*
X17451273Y3293211D01*
X17487392Y3293211D01*
X17497399Y3303219D01*
X17497399Y3403955D01*
X17487392Y3413963D01*
G37*
G36*
X17337328Y3118205D02*
G01*
X17327321Y3108198D01*
X17327321Y3007461D01*
X17337328Y2997454D01*
X17487392Y2997454D01*
X17497399Y3007461D01*
X17497399Y3108198D01*
X17487392Y3118205D01*
X17451273Y3118205D01*
X17441265Y3108198D01*
X17441265Y3087166D01*
X17431258Y3077159D01*
X17393462Y3077159D01*
X17383455Y3087166D01*
X17383455Y3108198D01*
X17373447Y3118205D01*
G37*
G36*
X17786553Y3413963D02*
G01*
X17776545Y3403955D01*
X17776545Y3303219D01*
X17786553Y3293211D01*
X17822672Y3293211D01*
X17832679Y3303219D01*
X17832679Y3324250D01*
X17842687Y3334258D01*
X17880482Y3334258D01*
X17890490Y3324250D01*
X17890490Y3303219D01*
X17900497Y3293211D01*
X17936616Y3293211D01*
X17946624Y3303219D01*
X17946624Y3403955D01*
X17936616Y3413963D01*
G37*
G36*
X17786553Y3118205D02*
G01*
X17776545Y3108198D01*
X17776545Y3007461D01*
X17786553Y2997454D01*
X17936616Y2997454D01*
X17946624Y3007461D01*
X17946624Y3108198D01*
X17936616Y3118205D01*
X17900497Y3118205D01*
X17890490Y3108198D01*
X17890490Y3087166D01*
X17880482Y3077159D01*
X17842687Y3077159D01*
X17832679Y3087166D01*
X17832679Y3108198D01*
X17822672Y3118205D01*
G37*
G36*
X18235777Y3413963D02*
G01*
X18225770Y3403955D01*
X18225770Y3303219D01*
X18235777Y3293211D01*
X18271896Y3293211D01*
X18281904Y3303219D01*
X18281904Y3324250D01*
X18291911Y3334258D01*
X18329706Y3334258D01*
X18339714Y3324250D01*
X18339714Y3303219D01*
X18349722Y3293211D01*
X18385840Y3293211D01*
X18395848Y3303219D01*
X18395848Y3403955D01*
X18385840Y3413963D01*
G37*
G36*
X18235777Y3118205D02*
G01*
X18225770Y3108198D01*
X18225770Y3007461D01*
X18235777Y2997454D01*
X18385840Y2997454D01*
X18395848Y3007461D01*
X18395848Y3108198D01*
X18385840Y3118205D01*
X18349722Y3118205D01*
X18339714Y3108198D01*
X18339714Y3087166D01*
X18329706Y3077159D01*
X18291911Y3077159D01*
X18281904Y3087166D01*
X18281904Y3108198D01*
X18271896Y3118205D01*
G37*
G36*
X18685002Y3413963D02*
G01*
X18674994Y3403955D01*
X18674994Y3303219D01*
X18685002Y3293211D01*
X18721120Y3293211D01*
X18731128Y3303219D01*
X18731128Y3324250D01*
X18741136Y3334258D01*
X18778931Y3334258D01*
X18788938Y3324250D01*
X18788938Y3303219D01*
X18798946Y3293211D01*
X18835065Y3293211D01*
X18845072Y3303219D01*
X18845072Y3403955D01*
X18835065Y3413963D01*
G37*
G36*
X18685002Y3118205D02*
G01*
X18674994Y3108198D01*
X18674994Y3007461D01*
X18685002Y2997454D01*
X18835065Y2997454D01*
X18845072Y3007461D01*
X18845072Y3108198D01*
X18835065Y3118205D01*
X18798946Y3118205D01*
X18788938Y3108198D01*
X18788938Y3087166D01*
X18778931Y3077159D01*
X18741136Y3077159D01*
X18731128Y3087166D01*
X18731128Y3108198D01*
X18721120Y3118205D01*
G37*
G36*
X19128028Y3413963D02*
G01*
X19118021Y3403955D01*
X19118021Y3303219D01*
X19128028Y3293211D01*
X19164147Y3293211D01*
X19174155Y3303219D01*
X19174155Y3324250D01*
X19184162Y3334258D01*
X19221958Y3334258D01*
X19231965Y3324250D01*
X19231965Y3303219D01*
X19241973Y3293211D01*
X19278092Y3293211D01*
X19288099Y3303219D01*
X19288099Y3403955D01*
X19278092Y3413963D01*
G37*
G36*
X19128028Y3118205D02*
G01*
X19118021Y3108198D01*
X19118021Y3007461D01*
X19128028Y2997454D01*
X19278092Y2997454D01*
X19288099Y3007461D01*
X19288099Y3108198D01*
X19278092Y3118205D01*
X19241973Y3118205D01*
X19231965Y3108198D01*
X19231965Y3087166D01*
X19221958Y3077159D01*
X19184162Y3077159D01*
X19174155Y3087166D01*
X19174155Y3108198D01*
X19164147Y3118205D01*
G37*
G36*
X17350028Y1229563D02*
G01*
X17340021Y1219555D01*
X17340021Y1118819D01*
X17350028Y1108811D01*
X17386147Y1108811D01*
X17396155Y1118819D01*
X17396155Y1139850D01*
X17406162Y1149858D01*
X17443958Y1149858D01*
X17453965Y1139850D01*
X17453965Y1118819D01*
X17463973Y1108811D01*
X17500092Y1108811D01*
X17510099Y1118819D01*
X17510099Y1219555D01*
X17500092Y1229563D01*
G37*
G36*
X17350028Y933805D02*
G01*
X17340021Y923798D01*
X17340021Y823061D01*
X17350028Y813053D01*
X17500092Y813053D01*
X17510099Y823061D01*
X17510099Y923798D01*
X17500092Y933805D01*
X17463973Y933805D01*
X17453965Y923798D01*
X17453965Y902766D01*
X17443958Y892759D01*
X17406162Y892759D01*
X17396155Y902766D01*
X17396155Y923798D01*
X17386147Y933805D01*
G37*
G36*
X17797678Y1229563D02*
G01*
X17787670Y1219555D01*
X17787670Y1118819D01*
X17797678Y1108811D01*
X17833797Y1108811D01*
X17843804Y1118819D01*
X17843804Y1139850D01*
X17853812Y1149858D01*
X17891658Y1149858D01*
X17901666Y1139850D01*
X17901666Y1118819D01*
X17911673Y1108811D01*
X17947792Y1108811D01*
X17957800Y1118819D01*
X17957800Y1219555D01*
X17947792Y1229563D01*
G37*
G36*
X17797678Y933805D02*
G01*
X17787670Y923798D01*
X17787670Y823061D01*
X17797678Y813053D01*
X17947792Y813053D01*
X17957800Y823061D01*
X17957800Y923798D01*
X17947792Y933805D01*
X17911673Y933805D01*
X17901666Y923798D01*
X17901666Y902766D01*
X17891658Y892759D01*
X17853812Y892759D01*
X17843804Y902766D01*
X17843804Y923798D01*
X17833797Y933805D01*
G37*
G36*
X18245378Y1229563D02*
G01*
X18235371Y1219555D01*
X18235371Y1118819D01*
X18245378Y1108811D01*
X18281497Y1108811D01*
X18291505Y1118819D01*
X18291505Y1139850D01*
X18301512Y1149858D01*
X18339308Y1149858D01*
X18349315Y1139850D01*
X18349315Y1118819D01*
X18359323Y1108811D01*
X18395442Y1108811D01*
X18405449Y1118819D01*
X18405449Y1219555D01*
X18395442Y1229563D01*
G37*
G36*
X18245378Y933805D02*
G01*
X18235371Y923798D01*
X18235371Y823061D01*
X18245378Y813053D01*
X18395442Y813053D01*
X18405449Y823061D01*
X18405449Y923798D01*
X18395442Y933805D01*
X18359323Y933805D01*
X18349315Y923798D01*
X18349315Y902766D01*
X18339308Y892759D01*
X18301512Y892759D01*
X18291505Y902766D01*
X18291505Y923798D01*
X18281497Y933805D01*
G37*
G36*
X18693028Y1229563D02*
G01*
X18683020Y1219555D01*
X18683020Y1118819D01*
X18693028Y1108811D01*
X18729147Y1108811D01*
X18739154Y1118819D01*
X18739154Y1139850D01*
X18749162Y1149858D01*
X18787008Y1149858D01*
X18797016Y1139850D01*
X18797016Y1118819D01*
X18807023Y1108811D01*
X18843142Y1108811D01*
X18853150Y1118819D01*
X18853150Y1219555D01*
X18843142Y1229563D01*
G37*
G36*
X18693028Y933805D02*
G01*
X18683020Y923798D01*
X18683020Y823061D01*
X18693028Y813053D01*
X18843142Y813053D01*
X18853150Y823061D01*
X18853150Y923798D01*
X18843142Y933805D01*
X18807023Y933805D01*
X18797016Y923798D01*
X18797016Y902766D01*
X18787008Y892759D01*
X18749162Y892759D01*
X18739154Y902766D01*
X18739154Y923798D01*
X18729147Y933805D01*
G37*
G36*
X19140728Y1229563D02*
G01*
X19130721Y1219555D01*
X19130721Y1118819D01*
X19140728Y1108811D01*
X19176847Y1108811D01*
X19186855Y1118819D01*
X19186855Y1139850D01*
X19196862Y1149858D01*
X19234658Y1149858D01*
X19244665Y1139850D01*
X19244665Y1118819D01*
X19254673Y1108811D01*
X19290792Y1108811D01*
X19300799Y1118819D01*
X19300799Y1219555D01*
X19290792Y1229563D01*
G37*
G36*
X19140728Y933805D02*
G01*
X19130721Y923798D01*
X19130721Y823061D01*
X19140728Y813053D01*
X19290792Y813053D01*
X19300799Y823061D01*
X19300799Y923798D01*
X19290792Y933805D01*
X19254673Y933805D01*
X19244665Y923798D01*
X19244665Y902766D01*
X19234658Y892759D01*
X19196862Y892759D01*
X19186855Y902766D01*
X19186855Y923798D01*
X19176847Y933805D01*
G37*
D10*
G01*
X20538262Y3306114D03*
G01*
X20538262Y3179114D03*
G01*
X20538262Y3052114D03*
G01*
X20538262Y2925114D03*
G01*
X20538262Y2798114D03*
G01*
X20538262Y2671114D03*
G01*
X20538262Y2544114D03*
G01*
X20538262Y2417114D03*
G01*
X20538262Y2290114D03*
G01*
X20538262Y2163114D03*
G01*
X20538262Y2036114D03*
G01*
X20538262Y1909114D03*
G01*
X20538262Y1782114D03*
G01*
X20538262Y1655114D03*
D11*
G01*
X20866760Y1505102D03*
G01*
X20993760Y1505102D03*
G01*
X21120760Y1505102D03*
G01*
X21247760Y1505102D03*
G01*
X21374760Y1505102D03*
D12*
G01*
X21501760Y1505102D03*
G01*
X21628760Y1505102D03*
G01*
X21755760Y1505102D03*
G01*
X21882760Y1505102D03*
G01*
X22009760Y1505102D03*
D13*
G01*
X22338258Y1655114D03*
G01*
X22338258Y1782114D03*
G01*
X22338258Y1909114D03*
G01*
X22338258Y2036114D03*
G01*
X22338258Y2163114D03*
G01*
X22338258Y2290114D03*
G01*
X22338258Y2417114D03*
G01*
X22338258Y2544114D03*
G01*
X22338258Y2671114D03*
G01*
X22338258Y2798114D03*
G01*
X22338258Y2925114D03*
G01*
X22338258Y3052114D03*
G01*
X22338258Y3179114D03*
G01*
X22338258Y3306114D03*
D14*
G01*
X21370264Y2572105D03*
D15*
G01*
X21476360Y661619D03*
G01*
X21476360Y1101597D03*
G01*
X22035160Y674319D03*
G01*
X22035160Y1114297D03*
M02*
