G04 Layer: TopSilkscreenLayer*
G04 EasyEDA v6.5.48, 2025-03-18 13:34:47*
G04 7eabae28df64481683c8fee008179a12,87df033457c64ae98c411226fbcdc187,10*
G04 Gerber Generator version 0.2*
G04 Scale: 100 percent, Rotated: No, Reflected: No *
G04 Dimensions in millimeters *
G04 leading zeros omitted , absolute positions ,4 integer and 5 decimal *
%FSLAX45Y45*%
%MOMM*%

%ADD10C,0.2032*%
%ADD11C,0.1000*%
%ADD12C,0.1524*%
%ADD13C,0.2540*%
%ADD14C,0.1520*%
%ADD15C,0.6000*%
%ADD16C,0.0137*%

%LPD*%
D10*
X20981060Y1912086D02*
G01*
X20981060Y1718284D01*
X20981060Y1912086D02*
G01*
X21101202Y1912086D01*
X20981060Y1819884D02*
G01*
X21054974Y1819884D01*
X20981060Y1718284D02*
G01*
X21101202Y1718284D01*
X21291448Y1884400D02*
G01*
X21272906Y1902942D01*
X21245220Y1912086D01*
X21208390Y1912086D01*
X21180450Y1902942D01*
X21162162Y1884400D01*
X21162162Y1865858D01*
X21171306Y1847570D01*
X21180450Y1838172D01*
X21198992Y1829028D01*
X21254364Y1810486D01*
X21272906Y1801342D01*
X21282050Y1792198D01*
X21291448Y1773656D01*
X21291448Y1745970D01*
X21272906Y1727428D01*
X21245220Y1718284D01*
X21208390Y1718284D01*
X21180450Y1727428D01*
X21162162Y1745970D01*
X21352408Y1912086D02*
G01*
X21352408Y1718284D01*
X21352408Y1912086D02*
G01*
X21435466Y1912086D01*
X21463152Y1902942D01*
X21472550Y1893798D01*
X21481694Y1875256D01*
X21481694Y1847570D01*
X21472550Y1829028D01*
X21463152Y1819884D01*
X21435466Y1810486D01*
X21352408Y1810486D01*
X21561196Y1912086D02*
G01*
X21662796Y1912086D01*
X21607170Y1838172D01*
X21635110Y1838172D01*
X21653398Y1829028D01*
X21662796Y1819884D01*
X21671940Y1792198D01*
X21671940Y1773656D01*
X21662796Y1745970D01*
X21644254Y1727428D01*
X21616568Y1718284D01*
X21588882Y1718284D01*
X21561196Y1727428D01*
X21551798Y1736572D01*
X21542654Y1755114D01*
X21742044Y1865858D02*
G01*
X21742044Y1875256D01*
X21751442Y1893798D01*
X21760586Y1902942D01*
X21779128Y1912086D01*
X21815958Y1912086D01*
X21834500Y1902942D01*
X21843644Y1893798D01*
X21853042Y1875256D01*
X21853042Y1856714D01*
X21843644Y1838172D01*
X21825356Y1810486D01*
X21732900Y1718284D01*
X21862186Y1718284D01*
X20600060Y502386D02*
G01*
X20600060Y308584D01*
X20729346Y502386D02*
G01*
X20729346Y308584D01*
X20600060Y410184D02*
G01*
X20729346Y410184D01*
X20864220Y502386D02*
G01*
X20790306Y308584D01*
X20864220Y502386D02*
G01*
X20938134Y308584D01*
X20817992Y373100D02*
G01*
X20910448Y373100D01*
X20999094Y502386D02*
G01*
X20999094Y308584D01*
X20999094Y502386D02*
G01*
X21128380Y308584D01*
X21128380Y502386D02*
G01*
X21128380Y308584D01*
X21189340Y502386D02*
G01*
X21189340Y308584D01*
X21189340Y502386D02*
G01*
X21254110Y502386D01*
X21281796Y493242D01*
X21300084Y474700D01*
X21309482Y456158D01*
X21318626Y428472D01*
X21318626Y382498D01*
X21309482Y354558D01*
X21300084Y336270D01*
X21281796Y317728D01*
X21254110Y308584D01*
X21189340Y308584D01*
X21508872Y474700D02*
G01*
X21490330Y493242D01*
X21462644Y502386D01*
X21425814Y502386D01*
X21398128Y493242D01*
X21379586Y474700D01*
X21379586Y456158D01*
X21388730Y437870D01*
X21398128Y428472D01*
X21416670Y419328D01*
X21472042Y400786D01*
X21490330Y391642D01*
X21499728Y382498D01*
X21508872Y363956D01*
X21508872Y336270D01*
X21490330Y317728D01*
X21462644Y308584D01*
X21425814Y308584D01*
X21398128Y317728D01*
X21379586Y336270D01*
X21569832Y502386D02*
G01*
X21569832Y308584D01*
X21569832Y502386D02*
G01*
X21652890Y502386D01*
X21680830Y493242D01*
X21689974Y484098D01*
X21699118Y465556D01*
X21699118Y437870D01*
X21689974Y419328D01*
X21680830Y410184D01*
X21652890Y400786D01*
X21569832Y400786D01*
X21760078Y502386D02*
G01*
X21760078Y308584D01*
X21760078Y502386D02*
G01*
X21880220Y502386D01*
X21760078Y410184D02*
G01*
X21833992Y410184D01*
X21760078Y308584D02*
G01*
X21880220Y308584D01*
X22015094Y502386D02*
G01*
X21941180Y308584D01*
X22015094Y502386D02*
G01*
X22089008Y308584D01*
X21968866Y373100D02*
G01*
X22061322Y373100D01*
X22149968Y502386D02*
G01*
X22149968Y308584D01*
X22279254Y502386D02*
G01*
X22149968Y373100D01*
X22196196Y419328D02*
G01*
X22279254Y308584D01*
D11*
X19927214Y3256508D02*
G01*
X19974966Y3256508D01*
X19927214Y3256508D02*
G01*
X19927214Y3277082D01*
X19929500Y3283686D01*
X19931786Y3285972D01*
X19936358Y3288258D01*
X19940930Y3288258D01*
X19945502Y3285972D01*
X19947788Y3283686D01*
X19950074Y3277082D01*
X19950074Y3256508D01*
X19950074Y3272510D02*
G01*
X19974966Y3288258D01*
X19927214Y3303244D02*
G01*
X19974966Y3335248D01*
X19927214Y3335248D02*
G01*
X19974966Y3303244D01*
X19927214Y3018510D02*
G01*
X19974966Y3018510D01*
X19927214Y3002508D02*
G01*
X19927214Y3034258D01*
X19927214Y3049244D02*
G01*
X19974966Y3081248D01*
X19927214Y3081248D02*
G01*
X19974966Y3049244D01*
X19938644Y2757144D02*
G01*
X19934072Y2754858D01*
X19929500Y2750286D01*
X19927214Y2745714D01*
X19927214Y2736824D01*
X19929500Y2732252D01*
X19934072Y2727680D01*
X19938644Y2725394D01*
X19945502Y2723108D01*
X19956932Y2723108D01*
X19963790Y2725394D01*
X19968108Y2727680D01*
X19972680Y2732252D01*
X19974966Y2736824D01*
X19974966Y2745714D01*
X19972680Y2750286D01*
X19968108Y2754858D01*
X19963790Y2757144D01*
X19956932Y2757144D01*
X19956932Y2745714D02*
G01*
X19956932Y2757144D01*
X19927214Y2772130D02*
G01*
X19974966Y2772130D01*
X19927214Y2772130D02*
G01*
X19974966Y2804134D01*
X19927214Y2804134D02*
G01*
X19974966Y2804134D01*
X19927214Y2819120D02*
G01*
X19974966Y2819120D01*
X19927214Y2819120D02*
G01*
X19927214Y2834868D01*
X19929500Y2841726D01*
X19934072Y2846298D01*
X19938644Y2848584D01*
X19945502Y2850870D01*
X19956932Y2850870D01*
X19963790Y2848584D01*
X19968108Y2846298D01*
X19972680Y2841726D01*
X19974966Y2834868D01*
X19974966Y2819120D01*
X22466960Y2824454D02*
G01*
X22466960Y2776702D01*
X22466960Y2824454D02*
G01*
X22487534Y2824454D01*
X22494138Y2822168D01*
X22496424Y2819882D01*
X22498710Y2815310D01*
X22498710Y2810738D01*
X22496424Y2806166D01*
X22494138Y2803880D01*
X22487534Y2801594D01*
X22466960Y2801594D01*
X22482962Y2801594D02*
G01*
X22498710Y2776702D01*
X22513696Y2824454D02*
G01*
X22545700Y2776702D01*
X22545700Y2824454D02*
G01*
X22513696Y2776702D01*
X22482962Y2951454D02*
G01*
X22482962Y2903702D01*
X22466960Y2951454D02*
G01*
X22498710Y2951454D01*
X22513696Y2951454D02*
G01*
X22545700Y2903702D01*
X22545700Y2951454D02*
G01*
X22513696Y2903702D01*
X19927214Y2456408D02*
G01*
X19974966Y2474696D01*
X19927214Y2492730D02*
G01*
X19974966Y2474696D01*
X19927214Y2507716D02*
G01*
X19974966Y2507716D01*
X19927214Y2522702D02*
G01*
X19974966Y2522702D01*
X19927214Y2522702D02*
G01*
X19974966Y2554706D01*
X19927214Y2554706D02*
G01*
X19974966Y2554706D01*
D12*
X21404653Y4213407D02*
G01*
X21404653Y4135429D01*
X21409733Y4119935D01*
X21420147Y4109521D01*
X21435895Y4104441D01*
X21446309Y4104441D01*
X21461803Y4109521D01*
X21472217Y4119935D01*
X21477297Y4135429D01*
X21477297Y4213407D01*
X21516921Y4187499D02*
G01*
X21516921Y4192579D01*
X21522001Y4202993D01*
X21527335Y4208327D01*
X21537749Y4213407D01*
X21558323Y4213407D01*
X21568737Y4208327D01*
X21574071Y4202993D01*
X21579151Y4192579D01*
X21579151Y4182165D01*
X21574071Y4171751D01*
X21563657Y4156257D01*
X21511587Y4104441D01*
X21584485Y4104441D01*
X21170544Y703808D02*
G01*
X21279510Y703808D01*
X21170544Y703808D02*
G01*
X21170544Y750544D01*
X21175624Y766038D01*
X21180958Y771372D01*
X21191372Y776452D01*
X21201786Y776452D01*
X21212200Y771372D01*
X21217280Y766038D01*
X21222360Y750544D01*
X21222360Y703808D02*
G01*
X21222360Y750544D01*
X21227694Y766038D01*
X21232774Y771372D01*
X21243188Y776452D01*
X21258936Y776452D01*
X21269350Y771372D01*
X21274430Y766038D01*
X21279510Y750544D01*
X21279510Y703808D01*
X21170544Y841984D02*
G01*
X21175624Y831570D01*
X21186038Y821156D01*
X21196452Y816076D01*
X21212200Y810742D01*
X21238108Y810742D01*
X21253602Y816076D01*
X21264016Y821156D01*
X21274430Y831570D01*
X21279510Y841984D01*
X21279510Y862812D01*
X21274430Y873226D01*
X21264016Y883640D01*
X21253602Y888720D01*
X21238108Y894054D01*
X21212200Y894054D01*
X21196452Y888720D01*
X21186038Y883640D01*
X21175624Y873226D01*
X21170544Y862812D01*
X21170544Y841984D01*
X21170544Y959332D02*
G01*
X21175624Y948918D01*
X21186038Y938758D01*
X21196452Y933424D01*
X21212200Y928344D01*
X21238108Y928344D01*
X21253602Y933424D01*
X21264016Y938758D01*
X21274430Y948918D01*
X21279510Y959332D01*
X21279510Y980160D01*
X21274430Y990574D01*
X21264016Y1000988D01*
X21253602Y1006068D01*
X21238108Y1011402D01*
X21212200Y1011402D01*
X21196452Y1006068D01*
X21186038Y1000988D01*
X21175624Y990574D01*
X21170544Y980160D01*
X21170544Y959332D01*
X21170544Y1082014D02*
G01*
X21279510Y1082014D01*
X21170544Y1045692D02*
G01*
X21170544Y1118336D01*
X22314560Y1276324D02*
G01*
X22314560Y1167358D01*
X22314560Y1276324D02*
G01*
X22361296Y1276324D01*
X22376790Y1271244D01*
X22382124Y1265910D01*
X22387204Y1255496D01*
X22387204Y1245082D01*
X22382124Y1234668D01*
X22376790Y1229588D01*
X22361296Y1224508D01*
X22314560Y1224508D01*
X22350882Y1224508D02*
G01*
X22387204Y1167358D01*
X22421494Y1255496D02*
G01*
X22431908Y1260830D01*
X22447656Y1276324D01*
X22447656Y1167358D01*
X22481946Y1255496D02*
G01*
X22492360Y1260830D01*
X22507854Y1276324D01*
X22507854Y1167358D01*
X21742044Y678408D02*
G01*
X21851010Y678408D01*
X21742044Y678408D02*
G01*
X21742044Y725144D01*
X21747124Y740638D01*
X21752458Y745972D01*
X21762872Y751052D01*
X21773286Y751052D01*
X21783700Y745972D01*
X21788780Y740638D01*
X21793860Y725144D01*
X21793860Y678408D01*
X21793860Y714730D02*
G01*
X21851010Y751052D01*
X21742044Y785342D02*
G01*
X21851010Y785342D01*
X21742044Y785342D02*
G01*
X21742044Y852906D01*
X21793860Y785342D02*
G01*
X21793860Y826998D01*
X21851010Y785342D02*
G01*
X21851010Y852906D01*
X21757538Y960094D02*
G01*
X21747124Y949680D01*
X21742044Y933932D01*
X21742044Y913358D01*
X21747124Y897610D01*
X21757538Y887196D01*
X21767952Y887196D01*
X21778366Y892530D01*
X21783700Y897610D01*
X21788780Y908024D01*
X21799194Y939266D01*
X21804274Y949680D01*
X21809608Y954760D01*
X21820022Y960094D01*
X21835516Y960094D01*
X21845930Y949680D01*
X21851010Y933932D01*
X21851010Y913358D01*
X21845930Y897610D01*
X21835516Y887196D01*
X21742044Y994384D02*
G01*
X21851010Y994384D01*
X21742044Y994384D02*
G01*
X21742044Y1061948D01*
X21793860Y994384D02*
G01*
X21793860Y1035786D01*
X21851010Y994384D02*
G01*
X21851010Y1061948D01*
X21742044Y1132560D02*
G01*
X21851010Y1132560D01*
X21742044Y1096238D02*
G01*
X21742044Y1168882D01*
X19748652Y2724886D02*
G01*
X19738238Y2719552D01*
X19727824Y2709138D01*
X19722744Y2698978D01*
X19722744Y2678150D01*
X19727824Y2667736D01*
X19738238Y2657322D01*
X19748652Y2651988D01*
X19764400Y2646908D01*
X19790308Y2646908D01*
X19805802Y2651988D01*
X19816216Y2657322D01*
X19826630Y2667736D01*
X19831710Y2678150D01*
X19831710Y2698978D01*
X19826630Y2709138D01*
X19816216Y2719552D01*
X19805802Y2724886D01*
X19722744Y2759176D02*
G01*
X19831710Y2759176D01*
X19722744Y2831820D02*
G01*
X19831710Y2831820D01*
X19774560Y2759176D02*
G01*
X19774560Y2831820D01*
X19722744Y2876524D02*
G01*
X19722744Y2933674D01*
X19764400Y2902432D01*
X19764400Y2918180D01*
X19769480Y2928594D01*
X19774560Y2933674D01*
X19790308Y2939008D01*
X19800722Y2939008D01*
X19816216Y2933674D01*
X19826630Y2923260D01*
X19831710Y2907766D01*
X19831710Y2892018D01*
X19826630Y2876524D01*
X19821550Y2871444D01*
X19811136Y2866110D01*
X19722744Y3025114D02*
G01*
X19795388Y2973298D01*
X19795388Y3051022D01*
X19722744Y3025114D02*
G01*
X19831710Y3025114D01*
X19722744Y3116554D02*
G01*
X19727824Y3101060D01*
X19743572Y3090646D01*
X19769480Y3085312D01*
X19784974Y3085312D01*
X19811136Y3090646D01*
X19826630Y3101060D01*
X19831710Y3116554D01*
X19831710Y3126968D01*
X19826630Y3142462D01*
X19811136Y3152876D01*
X19784974Y3158210D01*
X19769480Y3158210D01*
X19743572Y3152876D01*
X19727824Y3142462D01*
X19722744Y3126968D01*
X19722744Y3116554D01*
X20370444Y741908D02*
G01*
X20479410Y783564D01*
X20370444Y824966D02*
G01*
X20479410Y783564D01*
X20370444Y859256D02*
G01*
X20479410Y859256D01*
X20370444Y893546D02*
G01*
X20479410Y893546D01*
X20370444Y893546D02*
G01*
X20479410Y966444D01*
X20370444Y966444D02*
G01*
X20479410Y966444D01*
D13*
X20640954Y1134084D02*
G01*
X20640954Y1052042D01*
X20600060Y1093190D02*
G01*
X20681848Y1093190D01*
X20854060Y1093190D02*
G01*
X20935848Y1093190D01*
D14*
X19397116Y2596108D02*
G01*
X19285610Y2553690D01*
X19397116Y2511272D02*
G01*
X19285610Y2553690D01*
X19370700Y2396464D02*
G01*
X19381114Y2401798D01*
X19391782Y2412466D01*
X19397116Y2423134D01*
X19397116Y2444216D01*
X19391782Y2454884D01*
X19381114Y2465552D01*
X19370700Y2470886D01*
X19354698Y2476220D01*
X19328028Y2476220D01*
X19312280Y2470886D01*
X19301612Y2465552D01*
X19290944Y2454884D01*
X19285610Y2444216D01*
X19285610Y2423134D01*
X19290944Y2412466D01*
X19301612Y2401798D01*
X19312280Y2396464D01*
X19370700Y2281910D02*
G01*
X19381114Y2287244D01*
X19391782Y2297658D01*
X19397116Y2308326D01*
X19397116Y2329662D01*
X19391782Y2340330D01*
X19381114Y2350744D01*
X19370700Y2356078D01*
X19354698Y2361412D01*
X19328028Y2361412D01*
X19312280Y2356078D01*
X19301612Y2350744D01*
X19290944Y2340330D01*
X19285610Y2329662D01*
X19285610Y2308326D01*
X19290944Y2297658D01*
X19301612Y2287244D01*
X19312280Y2281910D01*
X19116700Y2516253D02*
G01*
X19127114Y2521587D01*
X19137782Y2532255D01*
X19143116Y2542923D01*
X19143116Y2564259D01*
X19137782Y2574673D01*
X19127114Y2585341D01*
X19116700Y2590675D01*
X19100698Y2596009D01*
X19074028Y2596009D01*
X19058280Y2590675D01*
X19047612Y2585341D01*
X19036944Y2574673D01*
X19031610Y2564259D01*
X19031610Y2542923D01*
X19036944Y2532255D01*
X19047612Y2521587D01*
X19058280Y2516253D01*
X19074028Y2516253D01*
X19074028Y2542923D02*
G01*
X19074028Y2516253D01*
X19143116Y2481455D02*
G01*
X19031610Y2481455D01*
X19143116Y2481455D02*
G01*
X19031610Y2407033D01*
X19143116Y2407033D02*
G01*
X19031610Y2407033D01*
X19143116Y2371981D02*
G01*
X19031610Y2371981D01*
X19143116Y2371981D02*
G01*
X19143116Y2334897D01*
X19137782Y2318895D01*
X19127114Y2308227D01*
X19116700Y2302893D01*
X19100698Y2297559D01*
X19074028Y2297559D01*
X19058280Y2302893D01*
X19047612Y2308227D01*
X19036944Y2318895D01*
X19031610Y2334897D01*
X19031610Y2371981D01*
X18873114Y2521691D02*
G01*
X18883782Y2532359D01*
X18889116Y2548361D01*
X18889116Y2569443D01*
X18883782Y2585445D01*
X18873114Y2596113D01*
X18862700Y2596113D01*
X18852032Y2590779D01*
X18846698Y2585445D01*
X18841364Y2574777D01*
X18830696Y2543027D01*
X18825362Y2532359D01*
X18820028Y2527025D01*
X18809360Y2521691D01*
X18793612Y2521691D01*
X18782944Y2532359D01*
X18777610Y2548361D01*
X18777610Y2569443D01*
X18782944Y2585445D01*
X18793612Y2596113D01*
X18862700Y2407137D02*
G01*
X18873114Y2412471D01*
X18883782Y2423139D01*
X18889116Y2433553D01*
X18889116Y2454889D01*
X18883782Y2465557D01*
X18873114Y2476225D01*
X18862700Y2481559D01*
X18846698Y2486639D01*
X18820028Y2486639D01*
X18804280Y2481559D01*
X18793612Y2476225D01*
X18782944Y2465557D01*
X18777610Y2454889D01*
X18777610Y2433553D01*
X18782944Y2423139D01*
X18793612Y2412471D01*
X18804280Y2407137D01*
X18889116Y2372085D02*
G01*
X18777610Y2372085D01*
X18777610Y2372085D02*
G01*
X18777610Y2308331D01*
X18619114Y2521686D02*
G01*
X18629782Y2532354D01*
X18635116Y2548356D01*
X18635116Y2569438D01*
X18629782Y2585440D01*
X18619114Y2596108D01*
X18608700Y2596108D01*
X18598032Y2590774D01*
X18592698Y2585440D01*
X18587364Y2574772D01*
X18576696Y2543022D01*
X18571362Y2532354D01*
X18566028Y2527020D01*
X18555360Y2521686D01*
X18539612Y2521686D01*
X18528944Y2532354D01*
X18523610Y2548356D01*
X18523610Y2569438D01*
X18528944Y2585440D01*
X18539612Y2596108D01*
X18608700Y2407132D02*
G01*
X18619114Y2412466D01*
X18629782Y2423134D01*
X18635116Y2433548D01*
X18635116Y2454884D01*
X18629782Y2465552D01*
X18619114Y2476220D01*
X18608700Y2481554D01*
X18592698Y2486634D01*
X18566028Y2486634D01*
X18550280Y2481554D01*
X18539612Y2476220D01*
X18528944Y2465552D01*
X18523610Y2454884D01*
X18523610Y2433548D01*
X18528944Y2423134D01*
X18539612Y2412466D01*
X18550280Y2407132D01*
X18635116Y2329662D02*
G01*
X18523610Y2372080D01*
X18635116Y2329662D02*
G01*
X18523610Y2287244D01*
X18560694Y2356078D02*
G01*
X18560694Y2302992D01*
X18381116Y2596012D02*
G01*
X18269610Y2521590D01*
X18381116Y2521590D02*
G01*
X18269610Y2596012D01*
X18381116Y2486538D02*
G01*
X18269610Y2486538D01*
X18381116Y2486538D02*
G01*
X18381116Y2449454D01*
X18375782Y2433452D01*
X18365114Y2423038D01*
X18354700Y2417704D01*
X18338698Y2412370D01*
X18312028Y2412370D01*
X18296280Y2417704D01*
X18285612Y2423038D01*
X18274944Y2433452D01*
X18269610Y2449454D01*
X18269610Y2486538D01*
X18381116Y2334900D02*
G01*
X18269610Y2377318D01*
X18381116Y2334900D02*
G01*
X18269610Y2292228D01*
X18306694Y2361316D02*
G01*
X18306694Y2308230D01*
X18127116Y2596012D02*
G01*
X18015610Y2521590D01*
X18127116Y2521590D02*
G01*
X18015610Y2596012D01*
X18100700Y2407036D02*
G01*
X18111114Y2412370D01*
X18121782Y2423038D01*
X18127116Y2433452D01*
X18127116Y2454788D01*
X18121782Y2465456D01*
X18111114Y2476124D01*
X18100700Y2481458D01*
X18084698Y2486538D01*
X18058028Y2486538D01*
X18042280Y2481458D01*
X18031612Y2476124D01*
X18020944Y2465456D01*
X18015610Y2454788D01*
X18015610Y2433452D01*
X18020944Y2423038D01*
X18031612Y2412370D01*
X18042280Y2407036D01*
X18127116Y2371984D02*
G01*
X18015610Y2371984D01*
X18015610Y2371984D02*
G01*
X18015610Y2308230D01*
X17873116Y2553690D02*
G01*
X17761610Y2596108D01*
X17873116Y2553690D02*
G01*
X17761610Y2511272D01*
X17798694Y2580106D02*
G01*
X17798694Y2527020D01*
X17873116Y2476220D02*
G01*
X17761610Y2476220D01*
X17873116Y2476220D02*
G01*
X17873116Y2438882D01*
X17867782Y2423134D01*
X17857114Y2412466D01*
X17846700Y2407132D01*
X17830698Y2401798D01*
X17804028Y2401798D01*
X17788280Y2407132D01*
X17777612Y2412466D01*
X17766944Y2423134D01*
X17761610Y2438882D01*
X17761610Y2476220D01*
X17873116Y2334996D02*
G01*
X17867782Y2345410D01*
X17857114Y2356078D01*
X17846700Y2361412D01*
X17830698Y2366746D01*
X17804028Y2366746D01*
X17788280Y2361412D01*
X17777612Y2356078D01*
X17766944Y2345410D01*
X17761610Y2334996D01*
X17761610Y2313660D01*
X17766944Y2302992D01*
X17777612Y2292324D01*
X17788280Y2287244D01*
X17804028Y2281910D01*
X17830698Y2281910D01*
X17846700Y2287244D01*
X17857114Y2292324D01*
X17867782Y2302992D01*
X17873116Y2313660D01*
X17873116Y2334996D01*
X17619116Y2596009D02*
G01*
X17507610Y2596009D01*
X17619116Y2560957D02*
G01*
X17507610Y2560957D01*
X17619116Y2560957D02*
G01*
X17507610Y2486535D01*
X17619116Y2486535D02*
G01*
X17507610Y2486535D01*
X17619116Y2414399D02*
G01*
X17507610Y2414399D01*
X17619116Y2451483D02*
G01*
X17619116Y2377315D01*
X18136250Y1951964D02*
G01*
X18136250Y1840458D01*
X18136250Y1951964D02*
G01*
X18178668Y1840458D01*
X18221086Y1951964D02*
G01*
X18178668Y1840458D01*
X18221086Y1951964D02*
G01*
X18221086Y1840458D01*
X18256138Y1951964D02*
G01*
X18256138Y1840458D01*
X18256138Y1951964D02*
G01*
X18304144Y1951964D01*
X18319892Y1946630D01*
X18325226Y1941296D01*
X18330560Y1930628D01*
X18330560Y1914880D01*
X18325226Y1904212D01*
X18319892Y1898878D01*
X18304144Y1893544D01*
X18256138Y1893544D01*
X18365612Y1951964D02*
G01*
X18365612Y1872208D01*
X18370946Y1856460D01*
X18381614Y1845792D01*
X18397362Y1840458D01*
X18408030Y1840458D01*
X18424032Y1845792D01*
X18434700Y1856460D01*
X18440034Y1872208D01*
X18440034Y1951964D01*
X18538586Y1935962D02*
G01*
X18533252Y1946630D01*
X18517504Y1951964D01*
X18506836Y1951964D01*
X18490834Y1946630D01*
X18480166Y1930628D01*
X18475086Y1904212D01*
X18475086Y1877542D01*
X18480166Y1856460D01*
X18490834Y1845792D01*
X18506836Y1840458D01*
X18512170Y1840458D01*
X18528172Y1845792D01*
X18538586Y1856460D01*
X18543920Y1872208D01*
X18543920Y1877542D01*
X18538586Y1893544D01*
X18528172Y1904212D01*
X18512170Y1909546D01*
X18506836Y1909546D01*
X18490834Y1904212D01*
X18480166Y1893544D01*
X18475086Y1877542D01*
X18610976Y1951964D02*
G01*
X18594974Y1946630D01*
X18584306Y1930628D01*
X18578972Y1904212D01*
X18578972Y1888210D01*
X18584306Y1861794D01*
X18594974Y1845792D01*
X18610976Y1840458D01*
X18621390Y1840458D01*
X18637392Y1845792D01*
X18648060Y1861794D01*
X18653394Y1888210D01*
X18653394Y1904212D01*
X18648060Y1930628D01*
X18637392Y1946630D01*
X18621390Y1951964D01*
X18610976Y1951964D01*
X18752200Y1951964D02*
G01*
X18699114Y1951964D01*
X18693780Y1904212D01*
X18699114Y1909546D01*
X18714862Y1914880D01*
X18730864Y1914880D01*
X18746866Y1909546D01*
X18757534Y1898878D01*
X18762614Y1882876D01*
X18762614Y1872208D01*
X18757534Y1856460D01*
X18746866Y1845792D01*
X18730864Y1840458D01*
X18714862Y1840458D01*
X18699114Y1845792D01*
X18693780Y1851126D01*
X18688446Y1861794D01*
X18829670Y1951964D02*
G01*
X18813668Y1946630D01*
X18803000Y1930628D01*
X18797666Y1904212D01*
X18797666Y1888210D01*
X18803000Y1861794D01*
X18813668Y1845792D01*
X18829670Y1840458D01*
X18840338Y1840458D01*
X18856086Y1845792D01*
X18866754Y1861794D01*
X18872088Y1888210D01*
X18872088Y1904212D01*
X18866754Y1930628D01*
X18856086Y1946630D01*
X18840338Y1951964D01*
X18829670Y1951964D01*
D12*
X17247260Y4044924D02*
G01*
X17247260Y3935958D01*
X17319904Y4044924D02*
G01*
X17319904Y3935958D01*
X17247260Y3993108D02*
G01*
X17319904Y3993108D01*
X17354194Y4024096D02*
G01*
X17364608Y4029430D01*
X17380356Y4044924D01*
X17380356Y3935958D01*
X17847259Y4044924D02*
G01*
X17847259Y3935958D01*
X17919903Y4044924D02*
G01*
X17919903Y3935958D01*
X17847259Y3993108D02*
G01*
X17919903Y3993108D01*
X17959527Y4019016D02*
G01*
X17959527Y4024096D01*
X17964607Y4034510D01*
X17969941Y4039844D01*
X17980355Y4044924D01*
X18000929Y4044924D01*
X18011343Y4039844D01*
X18016677Y4034510D01*
X18021757Y4024096D01*
X18021757Y4013682D01*
X18016677Y4003268D01*
X18006263Y3987774D01*
X17954193Y3935958D01*
X18027091Y3935958D01*
X18447258Y4044924D02*
G01*
X18447258Y3935958D01*
X18519902Y4044924D02*
G01*
X18519902Y3935958D01*
X18447258Y3993108D02*
G01*
X18519902Y3993108D01*
X18564606Y4044924D02*
G01*
X18621756Y4044924D01*
X18590768Y4003268D01*
X18606261Y4003268D01*
X18616675Y3998188D01*
X18621756Y3993108D01*
X18627090Y3977360D01*
X18627090Y3966946D01*
X18621756Y3951452D01*
X18611341Y3941038D01*
X18595848Y3935958D01*
X18580354Y3935958D01*
X18564606Y3941038D01*
X18559525Y3946118D01*
X18554191Y3956532D01*
X19047256Y4044924D02*
G01*
X19047256Y3935958D01*
X19119900Y4044924D02*
G01*
X19119900Y3935958D01*
X19047256Y3993108D02*
G01*
X19119900Y3993108D01*
X19206260Y4044924D02*
G01*
X19154190Y3972280D01*
X19232168Y3972280D01*
X19206260Y4044924D02*
G01*
X19206260Y3935958D01*
X19647255Y4044924D02*
G01*
X19647255Y3935958D01*
X19719899Y4044924D02*
G01*
X19719899Y3935958D01*
X19647255Y3993108D02*
G01*
X19719899Y3993108D01*
X19816673Y4044924D02*
G01*
X19764603Y4044924D01*
X19759523Y3998188D01*
X19764603Y4003268D01*
X19780351Y4008602D01*
X19795845Y4008602D01*
X19811339Y4003268D01*
X19821753Y3993108D01*
X19827087Y3977360D01*
X19827087Y3966946D01*
X19821753Y3951452D01*
X19811339Y3941038D01*
X19795845Y3935958D01*
X19780351Y3935958D01*
X19764603Y3941038D01*
X19759523Y3946118D01*
X19754189Y3956532D01*
X17247260Y704824D02*
G01*
X17247260Y595858D01*
X17319904Y704824D02*
G01*
X17319904Y595858D01*
X17247260Y653008D02*
G01*
X17319904Y653008D01*
X17416678Y689330D02*
G01*
X17411344Y699744D01*
X17395850Y704824D01*
X17385436Y704824D01*
X17369942Y699744D01*
X17359528Y683996D01*
X17354194Y658088D01*
X17354194Y632180D01*
X17359528Y611352D01*
X17369942Y600938D01*
X17385436Y595858D01*
X17390770Y595858D01*
X17406264Y600938D01*
X17416678Y611352D01*
X17421758Y626846D01*
X17421758Y632180D01*
X17416678Y647674D01*
X17406264Y658088D01*
X17390770Y663168D01*
X17385436Y663168D01*
X17369942Y658088D01*
X17359528Y647674D01*
X17354194Y632180D01*
X17847259Y704824D02*
G01*
X17847259Y595858D01*
X17919903Y704824D02*
G01*
X17919903Y595858D01*
X17847259Y653008D02*
G01*
X17919903Y653008D01*
X18027091Y704824D02*
G01*
X17975021Y595858D01*
X17954193Y704824D02*
G01*
X18027091Y704824D01*
X18447258Y704824D02*
G01*
X18447258Y595858D01*
X18519902Y704824D02*
G01*
X18519902Y595858D01*
X18447258Y653008D02*
G01*
X18519902Y653008D01*
X18580354Y704824D02*
G01*
X18564606Y699744D01*
X18559525Y689330D01*
X18559525Y678916D01*
X18564606Y668502D01*
X18575020Y663168D01*
X18595848Y658088D01*
X18611341Y653008D01*
X18621756Y642594D01*
X18627090Y632180D01*
X18627090Y616432D01*
X18621756Y606018D01*
X18616675Y600938D01*
X18600927Y595858D01*
X18580354Y595858D01*
X18564606Y600938D01*
X18559525Y606018D01*
X18554191Y616432D01*
X18554191Y632180D01*
X18559525Y642594D01*
X18569940Y653008D01*
X18585434Y658088D01*
X18606261Y663168D01*
X18616675Y668502D01*
X18621756Y678916D01*
X18621756Y689330D01*
X18616675Y699744D01*
X18600927Y704824D01*
X18580354Y704824D01*
X19047256Y704824D02*
G01*
X19047256Y595858D01*
X19119900Y704824D02*
G01*
X19119900Y595858D01*
X19047256Y653008D02*
G01*
X19119900Y653008D01*
X19221754Y668502D02*
G01*
X19216674Y653008D01*
X19206260Y642594D01*
X19190766Y637260D01*
X19185432Y637260D01*
X19169938Y642594D01*
X19159524Y653008D01*
X19154190Y668502D01*
X19154190Y673582D01*
X19159524Y689330D01*
X19169938Y699744D01*
X19185432Y704824D01*
X19190766Y704824D01*
X19206260Y699744D01*
X19216674Y689330D01*
X19221754Y668502D01*
X19221754Y642594D01*
X19216674Y616432D01*
X19206260Y600938D01*
X19190766Y595858D01*
X19180352Y595858D01*
X19164604Y600938D01*
X19159524Y611352D01*
X19647255Y704824D02*
G01*
X19647255Y595858D01*
X19719899Y704824D02*
G01*
X19719899Y595858D01*
X19647255Y653008D02*
G01*
X19719899Y653008D01*
X19754189Y683996D02*
G01*
X19764603Y689330D01*
X19780351Y704824D01*
X19780351Y595858D01*
X19845629Y704824D02*
G01*
X19830135Y699744D01*
X19819721Y683996D01*
X19814641Y658088D01*
X19814641Y642594D01*
X19819721Y616432D01*
X19830135Y600938D01*
X19845629Y595858D01*
X19856043Y595858D01*
X19871791Y600938D01*
X19882205Y616432D01*
X19887285Y642594D01*
X19887285Y658088D01*
X19882205Y683996D01*
X19871791Y699744D01*
X19856043Y704824D01*
X19845629Y704824D01*
X17144644Y3205708D02*
G01*
X17253610Y3205708D01*
X17144644Y3205708D02*
G01*
X17144644Y3252444D01*
X17149724Y3267938D01*
X17155058Y3273272D01*
X17165472Y3278352D01*
X17175886Y3278352D01*
X17186300Y3273272D01*
X17191380Y3267938D01*
X17196460Y3252444D01*
X17196460Y3205708D01*
X17196460Y3242030D02*
G01*
X17253610Y3278352D01*
X17165472Y3312642D02*
G01*
X17160138Y3323056D01*
X17144644Y3338804D01*
X17253610Y3338804D01*
X17593868Y3205708D02*
G01*
X17702834Y3205708D01*
X17593868Y3205708D02*
G01*
X17593868Y3252444D01*
X17598948Y3267938D01*
X17604282Y3273272D01*
X17614696Y3278352D01*
X17625110Y3278352D01*
X17635524Y3273272D01*
X17640604Y3267938D01*
X17645684Y3252444D01*
X17645684Y3205708D01*
X17645684Y3242030D02*
G01*
X17702834Y3278352D01*
X17619776Y3317976D02*
G01*
X17614696Y3317976D01*
X17604282Y3323056D01*
X17598948Y3328390D01*
X17593868Y3338804D01*
X17593868Y3359378D01*
X17598948Y3369792D01*
X17604282Y3375126D01*
X17614696Y3380206D01*
X17625110Y3380206D01*
X17635524Y3375126D01*
X17651018Y3364712D01*
X17702834Y3312642D01*
X17702834Y3385540D01*
X18043093Y3205708D02*
G01*
X18152059Y3205708D01*
X18043093Y3205708D02*
G01*
X18043093Y3252444D01*
X18048173Y3267938D01*
X18053507Y3273272D01*
X18063921Y3278352D01*
X18074335Y3278352D01*
X18084749Y3273272D01*
X18089829Y3267938D01*
X18094909Y3252444D01*
X18094909Y3205708D01*
X18094909Y3242030D02*
G01*
X18152059Y3278352D01*
X18043093Y3323056D02*
G01*
X18043093Y3380206D01*
X18084749Y3349218D01*
X18084749Y3364712D01*
X18089829Y3375126D01*
X18094909Y3380206D01*
X18110657Y3385540D01*
X18121071Y3385540D01*
X18136565Y3380206D01*
X18146979Y3369792D01*
X18152059Y3354298D01*
X18152059Y3338804D01*
X18146979Y3323056D01*
X18141899Y3317976D01*
X18131485Y3312642D01*
X18492317Y3205708D02*
G01*
X18601283Y3205708D01*
X18492317Y3205708D02*
G01*
X18492317Y3252444D01*
X18497397Y3267938D01*
X18502731Y3273272D01*
X18513145Y3278352D01*
X18523559Y3278352D01*
X18533973Y3273272D01*
X18539053Y3267938D01*
X18544133Y3252444D01*
X18544133Y3205708D01*
X18544133Y3242030D02*
G01*
X18601283Y3278352D01*
X18492317Y3364712D02*
G01*
X18564961Y3312642D01*
X18564961Y3390620D01*
X18492317Y3364712D02*
G01*
X18601283Y3364712D01*
X18935344Y3205708D02*
G01*
X19044310Y3205708D01*
X18935344Y3205708D02*
G01*
X18935344Y3252444D01*
X18940424Y3267938D01*
X18945758Y3273272D01*
X18956172Y3278352D01*
X18966586Y3278352D01*
X18977000Y3273272D01*
X18982080Y3267938D01*
X18987160Y3252444D01*
X18987160Y3205708D01*
X18987160Y3242030D02*
G01*
X19044310Y3278352D01*
X18935344Y3375126D02*
G01*
X18935344Y3323056D01*
X18982080Y3317976D01*
X18977000Y3323056D01*
X18971666Y3338804D01*
X18971666Y3354298D01*
X18977000Y3369792D01*
X18987160Y3380206D01*
X19002908Y3385540D01*
X19013322Y3385540D01*
X19028816Y3380206D01*
X19039230Y3369792D01*
X19044310Y3354298D01*
X19044310Y3338804D01*
X19039230Y3323056D01*
X19034150Y3317976D01*
X19023736Y3312642D01*
X17157344Y1021308D02*
G01*
X17266310Y1021308D01*
X17157344Y1021308D02*
G01*
X17157344Y1068044D01*
X17162424Y1083538D01*
X17167758Y1088872D01*
X17178172Y1093952D01*
X17188586Y1093952D01*
X17199000Y1088872D01*
X17204080Y1083538D01*
X17209160Y1068044D01*
X17209160Y1021308D01*
X17209160Y1057630D02*
G01*
X17266310Y1093952D01*
X17172838Y1190726D02*
G01*
X17162424Y1185392D01*
X17157344Y1169898D01*
X17157344Y1159484D01*
X17162424Y1143990D01*
X17178172Y1133576D01*
X17204080Y1128242D01*
X17229988Y1128242D01*
X17250816Y1133576D01*
X17261230Y1143990D01*
X17266310Y1159484D01*
X17266310Y1164818D01*
X17261230Y1180312D01*
X17250816Y1190726D01*
X17235322Y1195806D01*
X17229988Y1195806D01*
X17214494Y1190726D01*
X17204080Y1180312D01*
X17199000Y1164818D01*
X17199000Y1159484D01*
X17204080Y1143990D01*
X17214494Y1133576D01*
X17229988Y1128242D01*
X17605019Y1021308D02*
G01*
X17713985Y1021308D01*
X17605019Y1021308D02*
G01*
X17605019Y1068044D01*
X17610099Y1083538D01*
X17615433Y1088872D01*
X17625847Y1093952D01*
X17636261Y1093952D01*
X17646675Y1088872D01*
X17651755Y1083538D01*
X17656835Y1068044D01*
X17656835Y1021308D01*
X17656835Y1057630D02*
G01*
X17713985Y1093952D01*
X17605019Y1201140D02*
G01*
X17713985Y1149070D01*
X17605019Y1128242D02*
G01*
X17605019Y1201140D01*
X18052694Y1021308D02*
G01*
X18161660Y1021308D01*
X18052694Y1021308D02*
G01*
X18052694Y1068044D01*
X18057774Y1083538D01*
X18063108Y1088872D01*
X18073522Y1093952D01*
X18083936Y1093952D01*
X18094350Y1088872D01*
X18099430Y1083538D01*
X18104510Y1068044D01*
X18104510Y1021308D01*
X18104510Y1057630D02*
G01*
X18161660Y1093952D01*
X18052694Y1154404D02*
G01*
X18057774Y1138656D01*
X18068188Y1133576D01*
X18078602Y1133576D01*
X18089016Y1138656D01*
X18094350Y1149070D01*
X18099430Y1169898D01*
X18104510Y1185392D01*
X18114924Y1195806D01*
X18125338Y1201140D01*
X18141086Y1201140D01*
X18151500Y1195806D01*
X18156580Y1190726D01*
X18161660Y1174978D01*
X18161660Y1154404D01*
X18156580Y1138656D01*
X18151500Y1133576D01*
X18141086Y1128242D01*
X18125338Y1128242D01*
X18114924Y1133576D01*
X18104510Y1143990D01*
X18099430Y1159484D01*
X18094350Y1180312D01*
X18089016Y1190726D01*
X18078602Y1195806D01*
X18068188Y1195806D01*
X18057774Y1190726D01*
X18052694Y1174978D01*
X18052694Y1154404D01*
X18500369Y1021308D02*
G01*
X18609335Y1021308D01*
X18500369Y1021308D02*
G01*
X18500369Y1068044D01*
X18505449Y1083538D01*
X18510783Y1088872D01*
X18521197Y1093952D01*
X18531611Y1093952D01*
X18542025Y1088872D01*
X18547105Y1083538D01*
X18552185Y1068044D01*
X18552185Y1021308D01*
X18552185Y1057630D02*
G01*
X18609335Y1093952D01*
X18536691Y1195806D02*
G01*
X18552185Y1190726D01*
X18562599Y1180312D01*
X18567933Y1164818D01*
X18567933Y1159484D01*
X18562599Y1143990D01*
X18552185Y1133576D01*
X18536691Y1128242D01*
X18531611Y1128242D01*
X18515863Y1133576D01*
X18505449Y1143990D01*
X18500369Y1159484D01*
X18500369Y1164818D01*
X18505449Y1180312D01*
X18515863Y1190726D01*
X18536691Y1195806D01*
X18562599Y1195806D01*
X18588761Y1190726D01*
X18604255Y1180312D01*
X18609335Y1164818D01*
X18609335Y1154404D01*
X18604255Y1138656D01*
X18593841Y1133576D01*
X18948044Y1021308D02*
G01*
X19057010Y1021308D01*
X18948044Y1021308D02*
G01*
X18948044Y1068044D01*
X18953124Y1083538D01*
X18958458Y1088872D01*
X18968872Y1093952D01*
X18979286Y1093952D01*
X18989700Y1088872D01*
X18994780Y1083538D01*
X18999860Y1068044D01*
X18999860Y1021308D01*
X18999860Y1057630D02*
G01*
X19057010Y1093952D01*
X18968872Y1128242D02*
G01*
X18963538Y1138656D01*
X18948044Y1154404D01*
X19057010Y1154404D01*
X18948044Y1219682D02*
G01*
X18953124Y1204188D01*
X18968872Y1193774D01*
X18994780Y1188694D01*
X19010274Y1188694D01*
X19036436Y1193774D01*
X19051930Y1204188D01*
X19057010Y1219682D01*
X19057010Y1230096D01*
X19051930Y1245844D01*
X19036436Y1256258D01*
X19010274Y1261338D01*
X18994780Y1261338D01*
X18968872Y1256258D01*
X18953124Y1245844D01*
X18948044Y1230096D01*
X18948044Y1219682D01*
D13*
X20536557Y4012516D02*
G01*
X20536557Y4059110D01*
X22340257Y4059110D01*
X22340257Y4012514D01*
D15*
X22103212Y3599309D02*
G01*
X22103212Y3936009D01*
X21753205Y3936009D01*
X21753205Y3636027D01*
X21503261Y3636027D01*
X21503261Y3936009D01*
X21253323Y3936009D01*
X21253323Y3636027D01*
X21003130Y3636027D01*
X21003130Y3936009D01*
X21946260Y3936009D02*
G01*
X21946260Y3599309D01*
X21003224Y3936070D02*
G01*
X20753217Y3936070D01*
X20753217Y3586071D01*
D13*
X22339957Y4012514D02*
G01*
X22339957Y3374229D01*
X20536557Y4012516D02*
G01*
X20536557Y3374229D01*
X20536560Y3522515D02*
G01*
X22339960Y3522515D01*
X20536560Y1587002D02*
G01*
X20536560Y1492514D01*
X20798647Y1492504D01*
X22077873Y1492514D02*
G01*
X22339960Y1492514D01*
X22339960Y1587002D01*
X21331351Y681583D02*
G01*
X21331351Y1081582D01*
X21621368Y1081582D02*
G01*
X21621368Y681583D01*
X21331351Y681583D02*
G01*
X21363254Y681583D01*
X21589466Y681583D02*
G01*
X21621368Y681583D01*
X21331351Y1081582D02*
G01*
X21363254Y1081582D01*
X21589466Y1081582D02*
G01*
X21621368Y1081582D01*
D12*
X22511369Y1002129D02*
G01*
X22511369Y1138120D01*
X22295551Y1138120D01*
X22295551Y1002129D01*
X22511369Y811888D02*
G01*
X22511369Y675896D01*
X22295551Y675896D01*
X22295551Y811888D01*
D13*
X21890151Y694283D02*
G01*
X21890151Y1094282D01*
X22180168Y1094282D02*
G01*
X22180168Y694283D01*
X21890151Y694283D02*
G01*
X21922054Y694283D01*
X22148266Y694283D02*
G01*
X22180168Y694283D01*
X21890151Y1094282D02*
G01*
X21922054Y1094282D01*
X22148266Y1094282D02*
G01*
X22180168Y1094282D01*
D10*
X20003160Y3421608D02*
G01*
X20254620Y3421608D01*
X20254620Y2913608D01*
X20003160Y2913608D01*
X20003160Y3421608D01*
X20003160Y2888208D02*
G01*
X20254620Y2888208D01*
X20254620Y2380208D01*
X20003160Y2380208D01*
X20003160Y2888208D01*
D13*
X20549260Y1008608D02*
G01*
X21006460Y1008608D01*
X21006460Y678408D01*
X20549260Y678408D01*
X20549260Y1008608D01*
X19469760Y1376908D02*
G01*
X17437760Y1376908D01*
X17437760Y2875508D01*
X19469760Y2875508D01*
X19469760Y1376908D01*
D10*
X17526660Y3904208D02*
G01*
X17526660Y3652748D01*
X17018660Y3652748D01*
X17018660Y3904208D01*
X17526660Y3904208D01*
X18126659Y3904208D02*
G01*
X18126659Y3652748D01*
X17618659Y3652748D01*
X17618659Y3904208D01*
X18126659Y3904208D01*
X18726658Y3904208D02*
G01*
X18726658Y3652748D01*
X18218658Y3652748D01*
X18218658Y3904208D01*
X18726658Y3904208D01*
X19326656Y3904208D02*
G01*
X19326656Y3652748D01*
X18818656Y3652748D01*
X18818656Y3904208D01*
X19326656Y3904208D01*
X19926655Y3904208D02*
G01*
X19926655Y3652748D01*
X19418655Y3652748D01*
X19418655Y3904208D01*
X19926655Y3904208D01*
X17526660Y564108D02*
G01*
X17526660Y312648D01*
X17018660Y312648D01*
X17018660Y564108D01*
X17526660Y564108D01*
X18126659Y564108D02*
G01*
X18126659Y312648D01*
X17618659Y312648D01*
X17618659Y564108D01*
X18126659Y564108D01*
X18726658Y564108D02*
G01*
X18726658Y312648D01*
X18218658Y312648D01*
X18218658Y564108D01*
X18726658Y564108D01*
X19326656Y564108D02*
G01*
X19326656Y312648D01*
X18818656Y312648D01*
X18818656Y564108D01*
X19326656Y564108D01*
X19926655Y564108D02*
G01*
X19926655Y312648D01*
X19418655Y312648D01*
X19418655Y564108D01*
X19926655Y564108D01*
D12*
X17520269Y3300829D02*
G01*
X17520269Y3436820D01*
X17304451Y3436820D01*
X17304451Y3300829D01*
X17520269Y3110588D02*
G01*
X17520269Y2974596D01*
X17304451Y2974596D01*
X17304451Y3110588D01*
X17969494Y3300829D02*
G01*
X17969494Y3436820D01*
X17753675Y3436820D01*
X17753675Y3300829D01*
X17969494Y3110588D02*
G01*
X17969494Y2974596D01*
X17753675Y2974596D01*
X17753675Y3110588D01*
X18418718Y3300829D02*
G01*
X18418718Y3436820D01*
X18202899Y3436820D01*
X18202899Y3300829D01*
X18418718Y3110588D02*
G01*
X18418718Y2974596D01*
X18202899Y2974596D01*
X18202899Y3110588D01*
X18867942Y3300829D02*
G01*
X18867942Y3436820D01*
X18652124Y3436820D01*
X18652124Y3300829D01*
X18867942Y3110588D02*
G01*
X18867942Y2974596D01*
X18652124Y2974596D01*
X18652124Y3110588D01*
X19310969Y3300829D02*
G01*
X19310969Y3436820D01*
X19095151Y3436820D01*
X19095151Y3300829D01*
X19310969Y3110588D02*
G01*
X19310969Y2974596D01*
X19095151Y2974596D01*
X19095151Y3110588D01*
X17532969Y1116429D02*
G01*
X17532969Y1252420D01*
X17317151Y1252420D01*
X17317151Y1116429D01*
X17532969Y926188D02*
G01*
X17532969Y790196D01*
X17317151Y790196D01*
X17317151Y926188D01*
X17980644Y1116429D02*
G01*
X17980644Y1252420D01*
X17764826Y1252420D01*
X17764826Y1116429D01*
X17980644Y926188D02*
G01*
X17980644Y790196D01*
X17764826Y790196D01*
X17764826Y926188D01*
X18428319Y1116429D02*
G01*
X18428319Y1252420D01*
X18212501Y1252420D01*
X18212501Y1116429D01*
X18428319Y926188D02*
G01*
X18428319Y790196D01*
X18212501Y790196D01*
X18212501Y926188D01*
X18875994Y1116429D02*
G01*
X18875994Y1252420D01*
X18660176Y1252420D01*
X18660176Y1116429D01*
X18875994Y926188D02*
G01*
X18875994Y790196D01*
X18660176Y790196D01*
X18660176Y926188D01*
X19323669Y1116429D02*
G01*
X19323669Y1252420D01*
X19107851Y1252420D01*
X19107851Y1116429D01*
X19323669Y926188D02*
G01*
X19323669Y790196D01*
X19107851Y790196D01*
X19107851Y926188D01*
D13*
G75*
G01
X20465466Y3418307D02*
G03X20465466Y3418307I-34214J0D01*
G75*
G01
X21590660Y881583D02*
G03X21590660Y881583I-114300J0D01*
G75*
G01
X21552560Y881583D02*
G03X21552560Y881583I-76200J0D01*
G75*
G01
X22149460Y894283D02*
G03X22149460Y894283I-114300J0D01*
G75*
G01
X22111360Y894283D02*
G03X22111360Y894283I-76200J0D01*
M02*
