G04 Layer: BottomLayer*
G04 EasyEDA v6.5.48, 2025-03-18 13:34:47*
G04 7eabae28df64481683c8fee008179a12,87df033457c64ae98c411226fbcdc187,10*
G04 Gerber Generator version 0.2*
G04 Scale: 100 percent, Rotated: No, Reflected: No *
G04 Dimensions in millimeters *
G04 leading zeros omitted , absolute positions ,4 integer and 5 decimal *
%FSLAX45Y45*%
%MOMM*%

%ADD10C,0.5000*%
%ADD11R,1.5748X1.5748*%
%ADD12C,1.5748*%
%ADD13O,1.524X2.54*%
%ADD14R,1.7000X1.7000*%
%ADD15C,0.6100*%

%LPD*%
D10*
X20737652Y2927883D02*
G01*
X20936762Y2728772D01*
X21025586Y2728772D01*
X20354442Y3713048D02*
G01*
X20248194Y3606800D01*
X19532600Y3606800D01*
X18347131Y1865680D02*
G01*
X19322034Y1865680D01*
X20062748Y1124965D01*
X20062748Y1109421D01*
X20455509Y451205D02*
G01*
X20789188Y451205D01*
X21093328Y755345D01*
X21093328Y2062302D01*
X21831960Y1199108D02*
G01*
X21831960Y2075301D01*
X20855152Y3052112D01*
X20130160Y3294608D02*
G01*
X21591117Y3294608D01*
X21960611Y2925114D01*
X18834760Y2748508D02*
G01*
X18834760Y3010052D01*
X19010858Y3186150D01*
X18599658Y3777208D02*
G01*
X18599658Y3758996D01*
X17756149Y2915488D01*
X17561712Y2915488D01*
X19770496Y1249197D02*
G01*
X19770496Y1264234D01*
X19277584Y1757146D01*
X18124728Y1757146D01*
X17286350Y2595524D01*
X17286350Y2915488D01*
X20720253Y2709443D02*
G01*
X20980552Y2449144D01*
X20980552Y1266647D01*
X18599658Y437108D02*
G01*
X18599658Y1112901D01*
X18599658Y1112901D02*
G01*
X19111544Y1112901D01*
X19367296Y1368653D01*
X18487390Y1183259D02*
G01*
X18529300Y1183259D01*
X18599658Y1112901D01*
X19199656Y437108D02*
G01*
X19477863Y715314D01*
X19477863Y1407540D01*
X19243471Y1641932D01*
X19236816Y1641932D01*
X18580760Y2748508D02*
G01*
X18580760Y2908579D01*
X18580760Y2908579D02*
G01*
X19121297Y3449116D01*
X21699550Y3449116D01*
X22521189Y2627477D01*
X20283957Y3040608D02*
G01*
X20404632Y3161284D01*
X20956854Y3161284D01*
X21209914Y2908223D01*
X20130160Y3040608D02*
G01*
X20283957Y3040608D01*
X17145660Y3777208D02*
G01*
X17145660Y437108D01*
X19545655Y437108D02*
G01*
X19545655Y546455D01*
X19842708Y843508D01*
X20650860Y843508D01*
X20130261Y2761234D02*
G01*
X20802600Y2088642D01*
X20802600Y945642D01*
X20904961Y843534D01*
X17399660Y3777208D02*
G01*
X17399660Y2625470D01*
X17671846Y2353284D01*
X19342328Y2353284D01*
X19913498Y1782114D01*
X20548193Y3637762D02*
G01*
X20548193Y3668750D01*
X20398231Y3818712D01*
X19841159Y3818712D01*
X19799655Y3777208D01*
X19004635Y4148124D02*
G01*
X19199656Y3953103D01*
X19199656Y3777208D01*
X17145761Y3777234D02*
G01*
X17145761Y3874262D01*
X17272000Y4000500D01*
X17627600Y4000500D01*
X17745709Y3882389D01*
X17745709Y3777234D01*
X17745709Y3777234D02*
G01*
X17745709Y3877310D01*
X17868900Y4000500D01*
X18224500Y4000500D01*
X18345658Y3879342D01*
X18345658Y3777234D01*
X18345658Y3879342D02*
G01*
X18466816Y4000500D01*
X18834100Y4000500D01*
X18945606Y3888994D01*
X18945606Y3777234D01*
X18945606Y3777234D02*
G01*
X18945606Y3698494D01*
X19037300Y3606800D01*
X19375120Y3606800D01*
X19545554Y3777234D01*
X20130261Y2507234D02*
G01*
X20130261Y1586737D01*
X20256500Y1460500D01*
X20523200Y1460500D01*
X20650961Y1332737D01*
X20650961Y843534D01*
X18945606Y437134D02*
G01*
X18945606Y358394D01*
X19050000Y254000D01*
X19431000Y254000D01*
X19545554Y368554D01*
X19545554Y437134D01*
D11*
G01*
X20130160Y3040608D03*
D12*
G01*
X20130160Y3294608D03*
D11*
G01*
X20130160Y2507208D03*
D12*
G01*
X20130160Y2761208D03*
D13*
G01*
X20650860Y843508D03*
G01*
X20904860Y843508D03*
D14*
G01*
X19342760Y2748508D03*
G01*
X19088760Y2748508D03*
G01*
X18834760Y2748508D03*
G01*
X18580760Y2748508D03*
G01*
X18326760Y2748508D03*
G01*
X18072760Y2748508D03*
G01*
X17818760Y2748508D03*
G01*
X17564760Y2748508D03*
D11*
G01*
X17145660Y3777208D03*
D12*
G01*
X17399660Y3777208D03*
D11*
G01*
X17745659Y3777208D03*
D12*
G01*
X17999659Y3777208D03*
D11*
G01*
X18345658Y3777208D03*
D12*
G01*
X18599658Y3777208D03*
D11*
G01*
X18945656Y3777208D03*
D12*
G01*
X19199656Y3777208D03*
D11*
G01*
X19545655Y3777208D03*
D12*
G01*
X19799655Y3777208D03*
D11*
G01*
X17145660Y437108D03*
D12*
G01*
X17399660Y437108D03*
D11*
G01*
X17745659Y437108D03*
D12*
G01*
X17999659Y437108D03*
D11*
G01*
X18345658Y437108D03*
D12*
G01*
X18599658Y437108D03*
D11*
G01*
X18945656Y437108D03*
D12*
G01*
X19199656Y437108D03*
D11*
G01*
X19545655Y437108D03*
D12*
G01*
X19799655Y437108D03*
D15*
G01*
X21209914Y2908223D03*
G01*
X22521189Y2627477D03*
G01*
X19913498Y1782114D03*
G01*
X19236816Y1641932D03*
G01*
X18487390Y1183259D03*
G01*
X19367296Y1368653D03*
G01*
X20548193Y3637762D03*
G01*
X20720253Y2709443D03*
G01*
X20980552Y1266647D03*
G01*
X19770496Y1249197D03*
G01*
X17286350Y2915488D03*
G01*
X17561712Y2915488D03*
G01*
X19010858Y3186150D03*
G01*
X21960611Y2925114D03*
G01*
X21831960Y1199108D03*
G01*
X20855152Y3052114D03*
G01*
X19004635Y4148124D03*
G01*
X21093328Y2062302D03*
G01*
X20455509Y451205D03*
G01*
X20062748Y1109421D03*
G01*
X18347131Y1865680D03*
G01*
X20737652Y2927883D03*
G01*
X21025586Y2728772D03*
G01*
X20354442Y3713048D03*
G01*
X19532600Y3606800D03*
M02*
